<svg width="48" height="48" viewBox="0 0 48 48" fill="none" xmlns="http://www.w3.org/2000/svg">
<path d="M7.95403 18.68C8.03448 17.6776 8.48953 16.7423 9.22857 16.0603C9.96762 15.3784 10.9364 14.9998 11.942 15H36.058C37.0636 14.9998 38.0324 15.3784 38.7715 16.0603C39.5105 16.7423 39.9656 17.6776 40.046 18.68L41.652 38.68C41.6962 39.2304 41.6259 39.784 41.4457 40.3059C41.2654 40.8278 40.9791 41.3067 40.6046 41.7125C40.2302 42.1183 39.7758 42.4422 39.2701 42.6638C38.7643 42.8854 38.2182 42.9998 37.666 43H10.334C9.78187 42.9998 9.23573 42.8854 8.72998 42.6638C8.22424 42.4422 7.76985 42.1183 7.39542 41.7125C7.02099 41.3067 6.73463 40.8278 6.55437 40.3059C6.37411 39.784 6.30385 39.2304 6.34803 38.68L7.95403 18.68V18.68Z" stroke="black" stroke-width="3" stroke-linecap="round" stroke-linejoin="round"/>
<path d="M32 21V11C32 8.87827 31.1571 6.84344 29.6569 5.34315C28.1566 3.84285 26.1217 3 24 3C21.8783 3 19.8434 3.84285 18.3431 5.34315C16.8429 6.84344 16 8.87827 16 11V21" stroke="black" stroke-width="3" stroke-linecap="round" stroke-linejoin="round"/>
</svg>
