<svg width="56" height="56" viewBox="0 0 56 56" fill="none" xmlns="http://www.w3.org/2000/svg">
<path d="M24.0338 9.67164L24.1515 9.88104L24.3885 9.92003C25.909 10.1702 27.2911 10.9523 28.2884 12.127C29.2857 13.3017 29.8332 14.7924 29.8333 16.3333C29.8333 16.3333 29.8333 16.3334 29.8333 16.3334V20.5H16.8333V16.3333C16.8333 14.0825 17.9765 12.0979 19.7152 10.9316L20.2511 10.5721L19.7692 10.1429C19.0251 9.4804 18.1054 9.04713 17.1208 8.89529C16.1362 8.74345 15.1286 8.87952 14.2196 9.2871C13.3105 9.69467 12.5387 10.3564 11.997 11.1925C11.4554 12.0287 11.167 13.0036 11.1667 13.9998V14V28V28.5H11.6667H49C49.4862 28.5 49.9525 28.6932 50.2964 29.037C50.6402 29.3808 50.8333 29.8471 50.8333 30.3333C50.8333 30.8196 50.6402 31.2859 50.2964 31.6297C49.9525 31.9735 49.4862 32.1667 49 32.1667H48.5V32.6667V35V35.0001C48.5003 37.7925 47.635 40.5164 46.0232 42.7967C44.4114 45.077 42.1324 46.8015 39.4999 47.733L39.1667 47.8509V48.2043V49C39.1667 49.4862 38.9735 49.9525 38.6297 50.2964C38.2859 50.6402 37.8196 50.8333 37.3333 50.8333C36.8471 50.8333 36.3808 50.6402 36.037 50.2964C35.6931 49.9525 35.5 49.4862 35.5 49V48.5H35H21H20.5V49C20.5 49.4862 20.3068 49.9525 19.963 50.2964C19.6192 50.6402 19.1529 50.8333 18.6667 50.8333C18.1804 50.8333 17.7141 50.6402 17.3703 50.2964C17.0265 49.9525 16.8333 49.4862 16.8333 49V48.2043V47.8509L16.5001 47.733C13.8676 46.8015 11.5886 45.077 9.97675 42.7967C8.36495 40.5164 7.49965 37.7925 7.49999 35.0001V35V32.6667V32.1667H6.99999C6.51376 32.1667 6.04744 31.9735 5.70363 31.6297C5.35981 31.2859 5.16666 30.8196 5.16666 30.3333C5.16666 29.8471 5.35981 29.3808 5.70363 29.037C6.04744 28.6932 6.51376 28.5 6.99999 28.5H7.49999V28V14V14C7.49989 12.0467 8.14723 10.1484 9.34075 8.60216C10.5343 7.05591 12.2066 5.94885 14.0963 5.45417C15.9859 4.95949 17.9862 5.10509 19.7843 5.86819C21.5823 6.63129 23.0768 7.96885 24.0338 9.67164ZM44.8333 32.6667V32.1667H44.3333H11.6667H11.1667V32.6667V35C11.1667 37.608 12.2027 40.1091 14.0468 41.9532C15.8909 43.7973 18.392 44.8333 21 44.8333H35C37.608 44.8333 40.1091 43.7973 41.9532 41.9532C43.7973 40.1091 44.8333 37.608 44.8333 35V32.6667ZM20.5 16.3333V16.8333H21H25.6667H26.1667V16.3333C26.1667 15.5819 25.8681 14.8612 25.3368 14.3299C24.8054 13.7985 24.0848 13.5 23.3333 13.5C22.5819 13.5 21.8612 13.7985 21.3299 14.3299C20.7985 14.8612 20.5 15.5819 20.5 16.3333Z" fill="black" stroke="black"/>
</svg>
