<svg width="51" height="46" viewBox="0 0 51 46" fill="none" xmlns="http://www.w3.org/2000/svg">
<path d="M49.7661 9.42679C48.9748 7.58207 47.8338 5.91041 46.407 4.50538C44.9792 3.09616 43.2957 1.97627 41.4481 1.20662C39.5323 0.405363 37.4775 -0.00476559 35.403 4.17777e-05C32.4926 4.17777e-05 29.653 0.802444 27.1854 2.31809C26.5951 2.68066 26.0342 3.07889 25.5029 3.51278C24.9716 3.07889 24.4108 2.68066 23.8204 2.31809C21.3528 0.802444 18.5132 4.17777e-05 15.6028 4.17777e-05C13.5071 4.17777e-05 11.4763 0.404215 9.55769 1.20662C7.70401 1.9793 6.03333 3.09078 4.59879 4.50538C3.17013 5.90883 2.02889 7.58088 1.23973 9.42679C0.419145 11.3466 0 13.3853 0 15.4834C0 17.4627 0.401435 19.5252 1.1984 21.6233C1.86549 23.3767 2.82185 25.1955 4.04387 27.0321C5.9802 29.9386 8.64266 32.9699 11.9486 36.0428C17.427 41.1366 22.8523 44.6552 23.0825 44.7979L24.4816 45.7013C25.1015 46.0996 25.8985 46.0996 26.5183 45.7013L27.9174 44.7979C28.1477 44.6493 33.567 41.1366 39.0513 36.0428C42.3573 32.9699 45.0197 29.9386 46.9561 27.0321C48.1781 25.1955 49.1403 23.3767 49.8015 21.6233C50.5985 19.5252 50.9999 17.4627 50.9999 15.4834C51.0058 13.3853 50.5867 11.3466 49.7661 9.42679ZM25.5029 40.9998C25.5029 40.9998 4.48662 27.4422 4.48662 15.4834C4.48662 9.42679 9.46324 4.51727 15.6028 4.51727C19.9183 4.51727 23.661 6.94231 25.5029 10.4848C27.3448 6.94231 31.0876 4.51727 35.403 4.51727C41.5426 4.51727 46.5192 9.42679 46.5192 15.4834C46.5192 27.4422 25.5029 40.9998 25.5029 40.9998Z" fill="black"/>
</svg>
