<svg width="56" height="56" viewBox="0 0 56 56" fill="none" xmlns="http://www.w3.org/2000/svg">
<path d="M24.5 10.5C22.9285 10.5 21.7647 11.375 20.727 12.523C19.6945 13.6588 18.8545 15.204 18.4293 17.0625C18.4222 17.0835 18.4363 17.0975 18.4293 17.1168C17.9725 18.8668 17.3215 21.889 16.7895 24.5C15.5645 23.4412 14 22.75 12.25 22.75C8.3825 22.75 5.25 25.8825 5.25 29.75C5.25 33.4338 6.20025 37.5847 9.67925 40.6332C13.16 43.68 18.8405 45.5 28 45.5C37.1665 45.5 42.903 43.6468 46.375 40.5773C49.847 37.5095 50.75 33.355 50.75 29.75C50.75 25.8825 47.6175 22.75 43.75 22.75C42.0826 22.7537 40.4719 23.3554 39.2105 24.4457L39.1562 24.3915C39.1562 24.3845 39.102 24.3967 39.102 24.3915C38.479 21.5057 37.982 19.0785 37.5708 17.1168C37.1525 15.148 36.2722 13.5555 35.2188 12.4145C34.1653 11.27 33.0033 10.5 31.5 10.5C30.072 10.5 29.134 11.2315 28.4918 11.704C28.266 11.8668 28.1435 11.984 28 12.0855C27.8565 11.984 27.734 11.8668 27.5082 11.704C26.866 11.2315 25.928 10.5 24.5 10.5ZM24.5 14C24.472 14 24.8903 14.1435 25.4293 14.5477C25.7022 14.7455 25.984 14.9643 26.3585 15.2023C26.7348 15.442 27.2003 15.75 28 15.75C28.7997 15.75 29.2652 15.442 29.6415 15.2023C30.016 14.9643 30.2978 14.7455 30.569 14.5477C31.1115 14.1435 31.528 14 31.5 14C31.3967 14 32.0408 14.1645 32.648 14.8207C33.257 15.477 33.8923 16.5287 34.1793 17.8832C34.6658 20.1792 35.3692 23.4482 35.9852 26.3043C35.896 26.3655 35.8208 26.4075 35.7105 26.4688C34.5275 27.16 32.2315 28 28 28C23.7685 28 21.4725 27.16 20.2895 26.4688C20.153 26.3935 20.0708 26.3252 19.9605 26.25C20.5625 23.345 21.315 19.852 21.8207 17.9375V17.8832C22.1007 16.618 22.7307 15.5662 23.352 14.875C23.9732 14.1837 24.6785 14 24.5 14ZM12.25 26.25C14.28 26.25 15.6748 27.5975 15.75 29.5855V29.6415C15.6755 29.9679 15.6943 30.3087 15.8043 30.625C15.8192 30.6808 15.8373 30.7357 15.8585 30.7895C16.2015 34.2003 18.1212 36.484 20.454 37.4605C23.016 38.5403 25.8125 38.5 28 38.5C30.2348 38.5 33.0662 38.472 35.602 37.352C37.9593 36.3055 39.928 33.9465 40.1958 30.5148C40.2715 30.2672 40.29 30.0057 40.25 29.75V29.6957C40.2568 29.623 40.2568 29.5498 40.25 29.477C40.3655 27.5415 41.7603 26.25 43.75 26.25C45.8343 26.25 47.25 27.6658 47.25 29.75C47.25 32.7985 46.5868 35.6912 44.023 37.954C41.4593 40.215 36.6817 42 28 42C19.3112 42 14.5337 40.25 11.977 38.0082C9.42025 35.7647 8.75 32.8948 8.75 29.75C8.75 27.6658 10.1658 26.25 12.25 26.25ZM19.25 29.8602C21.1033 30.7615 23.8298 31.5 28 31.5C32.1702 31.5 34.8967 30.7615 36.75 29.8585C36.722 32.5588 35.7717 33.4215 34.1793 34.125C32.5588 34.8425 30.1402 35 28 35C25.8125 35 23.359 34.9597 21.7648 34.2895C20.1933 33.6245 19.271 32.7583 19.25 29.8585V29.8602Z" fill="black"/>
</svg>
