<svg width="54" height="54" viewBox="0 0 54 54" fill="none" xmlns="http://www.w3.org/2000/svg">
<path d="M42.84 25.35H7.20001V12.2417C7.20393 10.9058 7.7267 9.62571 8.65416 8.68107C9.58162 7.73644 10.8384 7.20399 12.15 7.2H41.85C43.1616 7.20399 44.4184 7.73644 45.3459 8.68107C46.2733 9.62571 46.7961 10.9058 46.8 12.2417V25.35H42.84Z" stroke="black" stroke-width="4" stroke-linecap="round" stroke-linejoin="round"/>
<path d="M2.25 46.8V33.15C2.25596 31.0832 3.06021 29.1028 4.48708 27.6413C5.91395 26.1798 7.84749 25.3561 9.86538 25.35H44.1346C46.1525 25.3561 48.086 26.1798 49.5129 27.6413C50.9398 29.1028 51.744 31.0832 51.75 33.15V46.8" stroke="black" stroke-width="4" stroke-linecap="round" stroke-linejoin="round"/>
<path d="M2.25 46.8V45.5625C2.2522 44.5788 2.55378 43.6361 3.08886 42.9405C3.62395 42.2449 4.34905 41.8528 5.10577 41.85H48.8942C49.651 41.8528 50.3761 42.2449 50.9111 42.9405C51.4462 43.6361 51.7478 44.5788 51.75 45.5625V46.8" stroke="black" stroke-width="4" stroke-linecap="round" stroke-linejoin="round"/>
<path d="M10.5 25.35V23.15C10.5027 21.9841 10.8899 20.8668 11.5769 20.0423C12.264 19.2179 13.195 18.7533 14.1667 18.75H23.3333C24.305 18.7533 25.236 19.2179 25.9231 20.0423C26.6101 20.8668 26.9973 21.9841 27 23.15V25.35" stroke="black" stroke-width="4" stroke-linecap="round" stroke-linejoin="round"/>
<path d="M27 25.35V23.15C27.0027 21.9841 27.3899 20.8668 28.0769 20.0423C28.764 19.2179 29.695 18.7533 30.6667 18.75H39.8333C40.805 18.7533 41.736 19.2179 42.4231 20.0423C43.1101 20.8668 43.4973 21.9841 43.5 23.15V25.35" stroke="black" stroke-width="4" stroke-linecap="round" stroke-linejoin="round"/>
</svg>
