<svg width="69" height="45" viewBox="0 0 69 45" fill="none" xmlns="http://www.w3.org/2000/svg">
<path d="M31.6832 4.71147H31.6837C33.3487 4.71147 34.7041 6.04148 34.7041 7.71428V35.8775C34.7041 37.5376 33.3437 38.898 31.6837 38.898H10.5612C8.90113 38.898 7.5408 37.5376 7.5408 35.8775V7.71428C7.5408 6.91322 7.85902 6.14496 8.42546 5.57853C8.99185 5.01214 9.76002 4.69392 10.561 4.69387C10.5611 4.69387 10.5611 4.69387 10.5612 4.69387L31.6832 4.71147ZM12.3214 36.3775H29.9235C31.1677 36.3775 32.1837 35.3616 32.1837 34.1173V21.7607C32.1837 20.5165 31.1677 19.5005 29.9235 19.5005H12.3214C11.0772 19.5005 10.0612 20.5165 10.0612 21.7607V34.1173C10.0612 35.3616 11.0772 36.3775 12.3214 36.3775ZM12.3214 17.0153H29.9235C31.1677 17.0153 32.1837 15.9993 32.1837 14.7551V9.47448C32.1837 8.23023 31.1677 7.21428 29.9235 7.21428H12.3214C11.0772 7.21428 10.0612 8.23023 10.0612 9.47448V14.7551C10.0612 15.9993 11.0772 17.0153 12.3214 17.0153ZM15.8418 9.97448C16.5338 9.97448 17.102 10.5427 17.102 11.2347V12.9949C17.102 13.6869 16.5338 14.2551 15.8418 14.2551C15.1499 14.2551 14.5816 13.6869 14.5816 12.9949V11.2347C14.5816 10.5427 15.1499 9.97448 15.8418 9.97448ZM15.8418 22.2959C16.5338 22.2959 17.102 22.8641 17.102 23.5561V28.8367C17.102 29.5287 16.5338 30.0969 15.8418 30.0969C15.1499 30.0969 14.5816 29.5287 14.5816 28.8367V23.5561C14.5816 22.8641 15.1499 22.2959 15.8418 22.2959Z" fill="black" stroke="black"/>
<path d="M41.6472 38.4438L41.5028 38.1939H41.2142H40.8368C40.2224 38.1939 39.6333 37.9498 39.1989 37.5154C38.7645 37.081 38.5204 36.4919 38.5204 35.8775V18.9796C38.5204 18.3653 38.7645 17.7761 39.1989 17.3417C39.6333 16.9073 40.2224 16.6633 40.8368 16.6633H63.3674C63.9817 16.6633 64.5709 16.9073 65.0053 17.3417C65.4397 17.7761 65.6837 18.3653 65.6837 18.9796V35.8775C65.6837 36.4919 65.4397 37.081 65.0053 37.5154C64.5709 37.9498 63.9817 38.1939 63.3674 38.1939H62.99H62.7013L62.557 38.4438C62.3537 38.7959 62.0613 39.0883 61.7092 39.2916C61.3571 39.4949 60.9576 39.6019 60.5511 39.6019C60.1445 39.6019 59.7451 39.4949 59.3929 39.2916C59.0408 39.0883 58.7484 38.7959 58.5451 38.4438L58.4008 38.1939H58.1121H46.092H45.8034L45.659 38.4438C45.4557 38.7959 45.1633 39.0883 44.8112 39.2916C44.4591 39.4949 44.0597 39.6019 43.6531 39.6019C43.2465 39.6019 42.8471 39.4949 42.495 39.2916C42.1429 39.0883 41.8505 38.7959 41.6472 38.4438ZM40.8368 18.4796H40.3368V18.9796V35.8775V36.3775H40.8368H63.3674H63.8674V35.8775V18.9796V18.4796H63.3674H40.8368ZM49.2858 28.3367H48.7858V28.8367V30.2449V30.7449H49.2858H54.9184H55.4184V30.2449V28.8367V28.3367H54.9184H49.2858ZM44.1531 27.9286H60.0511V32.5612H44.1531V27.9286ZM44.1531 22.2959H50.1939V24.1122H44.1531V22.2959ZM54.9184 24.1122C54.6775 24.1122 54.4466 24.0166 54.2762 23.8462C54.1059 23.6759 54.0102 23.4449 54.0102 23.2041C54.0102 22.9632 54.1059 22.7322 54.2762 22.5619C54.4466 22.3916 54.6775 22.2959 54.9184 22.2959C55.1593 22.2959 55.3903 22.3916 55.5606 22.5619C55.7309 22.7322 55.8266 22.9632 55.8266 23.2041C55.8266 23.4449 55.7309 23.6759 55.5606 23.8462C55.3903 24.0166 55.1593 24.1122 54.9184 24.1122ZM59.1429 24.1122C58.902 24.1122 58.671 24.0166 58.5007 23.8462C58.3304 23.6759 58.2347 23.4449 58.2347 23.2041C58.2347 22.9632 58.3304 22.7322 58.5007 22.5619C58.671 22.3916 58.902 22.2959 59.1429 22.2959C59.3838 22.2959 59.6148 22.3916 59.7851 22.5619C59.9554 22.7322 60.0511 22.9632 60.0511 23.2041C60.0511 23.4449 59.9554 23.6759 59.7851 23.8462C59.6148 24.0166 59.3838 24.1122 59.1429 24.1122Z" fill="black" stroke="black"/>
</svg>
