<svg width="60" height="69" viewBox="0 0 60 69" fill="none" xmlns="http://www.w3.org/2000/svg">
<path d="M30.4478 7.15778L41.7284 13.672L47.4482 10.3788L30.4478 0.556946L2.05117 16.9651L7.74204 20.2583L30.4478 7.15778Z" fill="#6F39A5"/>
<path d="M53.1392 13.672L30.4479 26.7725L19.1673 20.2584L13.4619 23.5516L30.4479 33.3589L58.8589 16.9652L53.1392 13.672Z" fill="#B66A23"/>
<path d="M6.61541 35.7134L0.910095 32.4202V52.035L29.3067 68.4432V61.8568L6.61541 48.7418V35.7134Z" fill="#249A19"/>
<path d="M0.910095 25.8335L23.6014 38.9341V51.9624L29.3067 55.27V35.6409L0.910095 19.2471V25.8335Z" fill="#178C9C"/>
<path d="M48.5894 32.4201V25.8337L31.589 35.641V68.443L37.2943 65.1498V38.9342L48.5894 32.4201Z" fill="#CCDC19"/>
<path d="M54.2802 22.5403V48.7414L42.9996 55.27V61.8564L60 52.0346V19.2471L54.2802 22.5403Z" fill="#A31A1A"/>
</svg>
