<svg width="48" height="48" viewBox="0 0 48 48" fill="none" xmlns="http://www.w3.org/2000/svg">
<path d="M14.8006 6.40223L14.8333 6.24816V6.09067V1.5H25.1262L22.4747 16.7616L14.3561 46.1228L6.84487 43.8695L14.8006 6.40223Z" stroke="black" stroke-width="3"/>
<path d="M16 0H18.6667V4H16V0ZM29.3333 0H32V4H29.3333V0ZM21.3333 5.33333H24V14.6667H21.3333V5.33333Z" fill="white"/>
<path d="M22.8737 1.5H33.1666V6.09067V6.24816L33.1994 6.40223L41.1551 43.8695L33.6426 46.1228L25.5253 16.7617L22.8737 1.5Z" stroke="black" stroke-width="3"/>
<path d="M13.3333 2.66667H34.6666V5.33334H13.3333V2.66667ZM25.3333 16H22.6666L17.3333 13.3333H30.6666L25.3333 16Z" fill="white"/>
</svg>
