<svg width="22" height="6" viewBox="0 0 22 6" fill="none" xmlns="http://www.w3.org/2000/svg">
<path d="M3.00025 0.500002C4.40016 0.500002 5.5005 1.58536 5.5005 2.88249C5.5005 4.17963 4.40016 5.26498 3.00025 5.26498C1.60034 5.26498 0.5 4.17963 0.5 2.88249C0.5 1.58536 1.60034 0.500002 3.00025 0.500002Z" stroke="black"/>
<path d="M10.9999 0.617525C12.3999 0.617525 13.5002 1.70288 13.5002 3.00002C13.5002 4.29715 12.3999 5.38251 10.9999 5.38251C9.60004 5.38251 8.49969 4.29715 8.49969 3.00002C8.49969 1.70288 9.60004 0.617525 10.9999 0.617525Z" stroke="black"/>
<path d="M18.9998 0.735018C20.3997 0.735018 21.5 1.82038 21.5 3.11751C21.5 4.41464 20.3997 5.5 18.9998 5.5C17.5999 5.5 16.4995 4.41464 16.4995 3.11751C16.4995 1.82038 17.5999 0.735018 18.9998 0.735018Z" stroke="black"/>
</svg>
