<svg width="22" height="20" viewBox="0 0 22 20" fill="none" xmlns="http://www.w3.org/2000/svg">
<path d="M12.3289 2.53072L12.329 2.53055C13.2894 1.54519 14.5763 1 15.9087 1C17.2411 1 18.528 1.54519 19.4884 2.53055L19.4883 2.53061L19.4974 2.53967C19.97 3.01227 20.348 3.58134 20.607 4.21387C20.866 4.84645 21 5.52823 21 6.21801C21 6.9078 20.866 7.58957 20.607 8.22216C20.348 8.85468 19.97 9.42375 19.4974 9.89635L19.4973 9.89631L19.4901 9.90368L11 18.571L2.50989 9.90368L2.50993 9.90365L2.50263 9.89635C2.03004 9.42375 1.65196 8.85468 1.39299 8.22216C1.13399 7.58957 1 6.90779 1 6.21801C1 5.52823 1.13399 4.84645 1.39299 4.21387C1.65196 3.58134 2.03004 3.01227 2.50263 2.53967L2.50269 2.53973L2.51173 2.53046C3.47166 1.54532 4.75799 1.00025 6.08994 1.00025C7.42188 1.00025 8.70821 1.54532 9.66814 2.53046L9.66996 2.53232L10.2856 3.16085L11.0016 3.89183L11.716 3.15925L12.3289 2.53072Z" stroke="white" stroke-width="2"/>
</svg>
