<svg width="22" height="22" viewBox="0 0 22 22" fill="none" xmlns="http://www.w3.org/2000/svg">
<path d="M21.349 10.0676L11.599 0.317635C11.4985 0.216943 11.3791 0.137061 11.2477 0.0825574C11.1163 0.0280541 10.9754 0 10.8331 0C10.6908 0 10.5499 0.0280541 10.4185 0.0825574C10.2871 0.137061 10.1677 0.216943 10.0672 0.317635L0.317186 10.0676C0.165726 10.2191 0.0625853 10.4122 0.0208038 10.6223C-0.0209777 10.8324 0.00047553 11.0502 0.0824514 11.2481C0.164427 11.446 0.303245 11.6152 0.481356 11.7342C0.659466 11.8533 0.868873 11.9168 1.0831 11.9169H2.16644V19.5002C2.16644 20.6951 3.13819 21.6669 4.3331 21.6669H17.3331C18.528 21.6669 19.4998 20.6951 19.4998 19.5002V11.9169H20.5831C20.7973 11.9168 21.0067 11.8533 21.1848 11.7342C21.363 11.6152 21.5018 11.446 21.5838 11.2481C21.6657 11.0502 21.6872 10.8324 21.6454 10.6223C21.6036 10.4122 21.5005 10.2191 21.349 10.0676ZM17.3342 19.5002H4.3331V9.11647L10.8331 2.61647L17.3331 9.11647V14.0836L17.3342 19.5002Z" fill="white"/>
</svg>
